<svg version="1.1" xmlns="http://www.w3.org/2000/svg" xmlns:xlink="http://www.w3.org/1999/xlink" width="487.21483" height="365.05032" viewBox="0,0,487.21483,365.05032"><g transform="translate(2.6666,3.46051)"><g data-paper-data="{&quot;isPaintingLayer&quot;:true}" fill="#000000" fill-rule="nonzero" stroke="#000000" stroke-width="2" stroke-linecap="butt" stroke-linejoin="miter" stroke-miterlimit="10" stroke-dasharray="" stroke-dashoffset="0" style="mix-blend-mode: normal"><path d="M310.25514,41.71686l0.74473,127.59754c-1.09112,-0.5099 -2.1023,-1.25363 -3.28245,-1.45593c-0.69134,-0.11851 -2.1036,-0.17778 -3.72736,-0.20512l-0.7348,-125.89565z"/><path d="M311.83682,312.71224l-6.99988,0.04086l-0.69896,-119.75573c0.59559,-0.06761 1.19175,-0.13695 1.7887,-0.20762c1.00956,0.33542 2.09028,0.51419 3.21314,0.50764c0.68492,-0.004 1.35336,-0.07676 1.9988,-0.21171z"/><path d="M11.25439,42.46198l1.58169,270.99538l-6.99988,0.04086l-1.58169,-270.99538z"/><path d="M311.78429,303.71239l0.04669,7.99986l-302.99484,1.76845l-0.04669,-7.99986z"/><path d="M310.25514,41.71686l0.05836,9.99983l-302.99484,1.76845l-0.05836,-9.99983z"/><path d="M303.55069,214.75893l0.04586,7.85701l-44.99923,0.26264l-0.04586,-7.85701z"/><path d="M305.30163,147.60471l0.04169,7.14274l-46.42778,0.27098l-0.04169,-7.14274z"/><path d="M235.00962,220.15906l0.20011,34.28513l-9.28555,0.0542l-0.20011,-34.28513z"/><path d="M269.41981,241.38716l0.15425,26.42812l-7.85701,0.04586l-0.15425,-26.42812z"/><path d="M286.61658,250.57267l0.02918,4.99991l-18.57111,0.10839l-0.02918,-4.99991z"/><path d="M275.02977,223.49697l0.07921,13.5712l-7.85701,0.04586l-0.07921,-13.5712z"/><path d="M282.43514,268.45452l0.09172,15.71402l-48.5706,0.28349l-0.09172,-15.71402z"/><path d="M210.62009,202.44397l0.58365,99.9983l-9.28555,0.0542l-0.58365,-99.9983z"/><path d="M240.39446,163.6981l0.05836,9.99983l-72.8559,0.42523l-0.05836,-9.99983z"/><path d="M187.60492,175.43498l0.16259,27.85667l-6.42846,0.03752l-0.16259,-27.85667z"/><path d="M229.87351,74.47226l0.51278,87.85564l-4.99991,0.02918l-0.51278,-87.85564z"/><path d="M264.98965,94.26765l0.03752,6.42846l-35.71368,0.20845l-0.03752,-6.42846z"/><path d="M265.45379,51.40707l0.13757,23.57103l-7.85701,0.04586l-0.13757,-23.57103z"/><path d="M303.40617,67.61441l0.03752,6.42846l-23.57103,0.13757l-0.03752,-6.42846z"/><path d="M283.00073,120.59156l0.15008,25.71385l-7.85701,0.04586l-0.15008,-25.71385z"/><path d="M301.42593,95.48359l0.04586,7.85701l-15.71402,0.09172l-0.04586,-7.85701z"/><path d="M275.20626,131.35151l0.03752,6.42846l-30.71377,0.17926l-0.03752,-6.42846z"/><path d="M248.60305,101.50628l0.08755,14.99974l-4.99991,0.02918l-0.08755,-14.99974z"/><path d="M222.78497,83.79952l0.0542,9.28555l-47.85632,0.27932l-0.0542,-9.28555z"/><path d="M169.35621,108.39748l0.34602,59.2847l-7.14274,0.04169l-0.34602,-59.2847z"/><path d="M181.24455,64.75593l0.12924,22.14248l-6.42846,0.03752l-0.12924,-22.14248z"/><path d="M167.23423,111.98136l0.03335,5.71419l-54.99906,0.32101l-0.03335,-5.71419z"/><path d="M131.93049,60.04367l0.29599,50.71343l-7.14274,0.04169l-0.29599,-50.71343z"/><path d="M52.85457,96.2201l0.03335,5.71419l-42.14214,0.24597l-0.03335,-5.71419z"/><path d="M58.31029,51.90179l0.18343,31.42803l-7.14274,0.04169l-0.18343,-31.42803z"/><path d="M100.66921,88.79804l0.03752,6.42846l-32.14231,0.1876l-0.03752,-6.42846z"/><path d="M94.82176,53.11728l0.11256,19.28538l-4.06008,0.0237l-0.11256,-19.28538z"/><path d="M141.62738,252.8475l0.02918,4.99991l-112.14095,0.65452l-0.02918,-4.99991z"/><path d="M119.13054,192.26348l0.34185,58.57043l-5.71419,0.03335l-0.34185,-58.57043z"/><path d="M117.98687,118.69748l0.39605,67.85598l-4.28564,0.02501l-0.39605,-67.85598z"/><path d="M114.48221,130.1467l0.03335,5.71419l-51.42769,0.30016l-0.03335,-5.71419z"/><path d="M97.20624,107.39l0.1209,20.71394l-4.99991,0.02918l-0.1209,-20.71394z"/><path d="M200.91208,252.50148l0.04586,7.85701l-48.5706,0.28349l-0.04586,-7.85701z"/><path d="M154.2967,220.63015l0.02918,4.99991l-36.42795,0.21261l-0.02918,-4.99991z"/><path d="M167.45379,271.9828l0.18343,31.42803l-9.28555,0.0542l-0.18343,-31.42803z"/><path d="M138.80363,258.57836l0.17926,30.71377l-7.85701,0.04586l-0.17926,-30.71377z"/><path d="M118.03961,273.63263l0.45983,29.35072l-9.99983,0.05836l-2.19259,-29.62913z"/><path d="M93.09847,260.27372l0.17093,29.28521l-6.42846,0.03752l-0.17093,-29.28521z"/><path d="M68.90905,276.84376l0.15425,26.42812l-5.71419,0.03335l-0.15425,-26.42812z"/><path d="M43.09515,259.85127l0.16676,28.57094l-7.85701,0.04586l-0.16676,-28.57094z"/><path d="M66.83849,166.85396l0.15008,25.71385l-7.14274,0.04169l-0.15008,-25.71385z"/><g><g><path d="M483.49861,350.25427l0.0438,7.50456l-484.04429,2.82516l-0.0438,-7.50456z"/><path d="M480.5019,-2.45469l2.08055,356.46673l-9.3807,0.05475l-2.08055,-356.46673z"/></g><g><path d="M480.50737,-1.51663l0.0438,7.50456l-482.16815,2.81421l-0.0438,-7.50456z"/><path d="M7.7473,5.93318l2.06959,354.59058l-9.3807,0.05475l-2.06959,-354.59058z"/></g></g><path d="M462.32645,200.6379v-36.58537h16.88555v36.58537z"/><path d="M10.99368,135.39374v-6.6196h52.07414v6.6196z"/><path d="M9.66976,227.18545v-8.38482h49.86761v8.38482z"/><path d="M59.53736,168.05041v-33.98059h7.50221v33.98059z"/><path d="M57.77214,225.42022v-15.88703h3.53045v15.88703z"/><path d="M10.55237,178.20045v-26.47837h5.73698v26.47838z"/><path d="M8.5,306v-255h298v255z"/></g></g></svg>