<svg version="1.1" xmlns="http://www.w3.org/2000/svg" xmlns:xlink="http://www.w3.org/1999/xlink" width="94.75188" height="260.3143" viewBox="0,0,94.75188,260.3143"><g transform="translate(-182.4,-113.23571)"><g stroke-miterlimit="10"><g stroke="none" stroke-width="1" stroke-linecap="butt"><path d="M240.09999,369.05001l0.9,-9.7l14.8,0.6l9.4,2.3l7.4,6.8z" fill="#ebebeb"/><path d="M239.29999,360.75001l-3.7,-50.4l-6.4,-62h30l0.7,62.3v50.1z" fill="#1b82c2"/></g><g stroke="none" stroke-width="1" stroke-linecap="butt"><path d="M201.59999,373.55001l0.9,-9.7l14.8,0.6l9.4,2.3l7.4,6.8z" fill="#ebebeb"/><path d="M203.09999,365.25001l0.5,-52.3l0.7,-60.1h29.1l-6.6,61.8l-4.7,50.6z" fill="#1b82c2"/></g><g stroke="none" stroke-width="1" stroke-linecap="butt"><path d="M265.49999,227.69441c-3.2,0.4 -8.6,-1.3 -8.6,-1.3c0,0 -8.1,-46.9 -1.1,-48.6c12.6,-3.4 14.9,46.6 14.9,46.6c0,0 -2.1,2.9 -5.2,3.3z" fill="#dbae76"/><path d="M251.09999,209.39451c0,0 -9,-32.9 2.5,-35.1c10.1,-2 21.6,29 21.6,29z" fill="#45b1b1"/></g><path d="M184.9,259.97501l16.75,9.5" fill="none" stroke="#525252" stroke-width="5" stroke-linecap="round"/><g fill="#dbae76" stroke="none" stroke-width="1" stroke-linecap="butt"><g><path d="M273.49999,251.05001l-8.2,2.4l-8.8,-27.1c0,0 3.1,-4.2 6.7,-3.9c2.7,0.2 7.3,1 7.3,1z"/></g><path d="M270.01579,273.62291c-1.8835,0.2693 -1.1129,-8.75 -2.8775,-8.9118c-1.3528,-0.1411 0.2592,5.4528 -0.1748,6.3537c-0.5321,0.9202 -3.2735,-0.578 -3.2735,-0.578c0,0 -2.5351,-5.1061 -2.9591,-7.7745c-1.062,-5.9061 4.6028,-11.8129 4.6028,-11.8129l7.2768,-0.3129c0,0 4.395,6.2685 4.5396,10.6227c0.0867,4.0598 -3.0078,9.562 -3.0078,9.562c0,0 -2.3025,2.798 -4.1265,2.8517z"/></g><path d="M202.49999,253.45001l-0.2,-76.3c0,0 15.2,-7.9 28.2,-8.1c13,-0.2 23.9334,4.0112 26.3334,5.3112c2.3,1.2 3.0666,81.2888 3.0666,81.2888c0,0 -17.1,2.8 -28.7,2.7c-11.8,-0.2 -28.7,-4.9 -28.7,-4.9z" fill="#afe1c6" stroke="none" stroke-width="1" stroke-linecap="butt"/><g stroke="none" stroke-width="1" stroke-linecap="butt"><path d="M192.09999,229.75001c-2.5,-0.2 -6.3,-2.2 -6.3,-2.2c0,0 5.6,-50.6 19.9,-50.3c11.2,-0.3 -7.2,51.3 -7.2,51.3c0,0 -3.9,1.4 -6.4,1.2z" fill="#dbae76"/><path d="M185.99999,203.85001c0,0 11.4,-29 18.4,-28.2c16.6,1.8 3.9,36.9 3.9,36.9z" fill="#45b1b1"/></g><g fill="#dbae76" stroke="none" stroke-width="1" stroke-linecap="butt"><path d="M187.79999,254.45001l-2.1,-27.7c0,0 4,-1.2 6.3,-1.6c3.2,-0.6 6.7,3.3 6.7,3.3l-3.2,27.7z"/><path d="M190.29999,273.55001c0,0 -4.1,-4.8 -4.8,-8.8c-0.7,-4.3 2.4,-11.3 2.4,-11.3l7.2,-1.1c0,0 6.7,4.7 6.8,10.7c0.1,2.7 -1.4,8.2 -1.4,8.2c0,0 -2.4,2 -3.1,1.2c-0.6,-0.8 -0.1,-6.6 -1.4,-6.2c-1.7,0.5 0.8,9.2 -1.1,9.3c-1.8,0.3 -4.6,-2 -4.6,-2z"/></g><path d="M231.20001,113.35004c6.8,-1.1 13.9,6.1 13.9,6.1c0,0 4,0.4 5.1,2.4c1.1,2 1.5,5.3 2,10.3c1.2,13.7 -9.6,34.4 -20.4,35c-7.2,-7 -9.5,-0.2 -11.9,-3.6c-5,-7.2 -8,-11.3 -9.9,-20.4c-1.6,-8.1 -2.5,-12.5 0.8,-19.2c3.3,-6.8 10.5,-6.7 10.5,-6.7l-2.9,-1.7c0,0 6.4,-1.5 9,-1.3c2.2,0.1 6.2,1.5 6.2,1.5z" fill="#0a0500" stroke="none" stroke-width="0" stroke-linecap="butt"/><g fill="#cca168" stroke="none" stroke-width="1" stroke-linecap="butt"><path d="M222.99999,159.45001l15.2,3.4l-0.1,9.1c0,0 4.9,0.9 4.8,3.7c-0.1,4.5 -18.9,6.9 -22.8,0c-1.5,-3.4 2,-4.6 2,-4.6z"/><path d="M218.39999,148.35001c0.8,2.4 0.3,4.7 -1,5.1c-1.4,0.5 -3.2,-1 -4,-3.4c-0.8,-2.4 -0.3,-4.7 1,-5.1c1.4,-0.5 3.2,1.1 4,3.4z"/><path d="M249.89999,146.15001c0,12.8 -7.9,19.6 -14.7,19.9c-11.8,0.2 -19.4,-9.5 -19.4,-22.3c0,-12.8 2.2,-22.4 17.2,-23.1c11.4,-0.6 18.8834,11.5 16.8834,25.2z"/></g><path d="M238.29999,158.85001c0,0.7 -2,2.2 -3.7,2.2c-1.7,0 -3.5,-1.9 -3.5,-2.7c0,-0.7 2.2,0 4,0c1.8,0 3.2,-0.2 3.2,0.5z" fill="#000000" stroke="none" stroke-width="1" stroke-linecap="butt"/><path d="M216.99999,130.85001" fill="none" stroke="#000000" stroke-width="4.38" stroke-linecap="round"/><path d="M211.79999,138.60721c0,0 -2.8143,-29.0715 27.5,-21.0572c6.9,1.9 11.4,7.8 11.9,11.7c0.4646,3.6905 -1.1048,10.0648 -1.1048,10.0648l-6.3952,-7.9648c0,0 -5,2.6 -8.2,3.4c-4.9,1.3 -12.5,2 -12.5,2l0.9,-5l-8.0548,13.495l-0.688,-8.795z" fill="#0a0500" stroke="none" stroke-width="1" stroke-linecap="butt"/><path d="M237.69999,151.45001c0,0 -0.3,1 -2.2,1c-1.4,0 -2.2,-0.8 -2.2,-0.8" fill="none" stroke="#000000" stroke-width="1.2775" stroke-linecap="round"/><g><path d="M224.19999,139.65001c0,0 2.9,-0.8 4.4,-0.8c1.7,-0.1 3.7,0.8 3.7,0.8" fill="none" stroke="#000000" stroke-width="1.46" stroke-linecap="round"/><g><path d="M224.09999,143.25c0,0 2.2,-1.2 4.5,-1c2.5,0.2 2.9,1.1 2.9,1.1" fill="none" stroke="#000000" stroke-width="1.46" stroke-linecap="round"/><path d="M227.39999,144.75c0,-1.2 0.9,-2.2 2.1,-2.2c1.2,0 2.1,1 2.1,2.2c0,1.2 -0.9,2.2 -2.1,2.2c-1.1,0 -2.1,-1 -2.1,-2.2z" fill="#000000" stroke="none" stroke-width="1" stroke-linecap="butt"/></g></g><path d="M203.67857,268.23765l20.57143,14.63736l-24,-6.91209l3.95604,-6.0989" fill="none" stroke="#525252" stroke-width="5" stroke-linecap="round"/><g><path d="M239.59999,139.55001c0,0 2.3,-0.8 4,-0.8c1.5,0.1 3.2,0.5 3.2,0.5" fill="none" stroke="#000000" stroke-width="1.46" stroke-linecap="round"/><g><path d="M239.59999,143.55001c0,0 1,-1.1 2.9,-1.3c2.3,-0.2 4.5,0.4 4.5,0.4" fill="none" stroke="#000000" stroke-width="1.46" stroke-linecap="round"/><path d="M244.49999,146.65001c-1.2,0 -2.1,-1 -2.1,-2.2c0,-1.2 0.9,-2.2 2.1,-2.2c1.2,0 2.1,1 2.1,2.2c0.1,1.2 -0.9,2.2 -2.1,2.2z" fill="#000000" stroke="none" stroke-width="1" stroke-linecap="butt"/></g></g><path d="M202.32083,271.98334c-1.30954,-2.61908 1.39914,-4.18337 3.66118,-3.61786c3.16747,0.79187 15.49968,7.10748 15.99814,11.44452c0.27701,2.41023 -3.2915,3.44399 -4.89109,1.68664c-2.2075,-2.42522 -3.97229,-3.81005 -6.98501,-5.5316c-0.09966,0.01208 -0.20113,0.0183 -0.30406,0.0183c-0.12076,0 -0.23952,-0.00856 -0.35571,-0.02511c-2.54899,-0.22876 -5.91139,-1.55076 -7.12345,-3.97489z" fill="#525252" stroke="none" stroke-width="0.5" stroke-linecap="butt"/></g></g></svg>