<svg version="1.1" xmlns="http://www.w3.org/2000/svg" xmlns:xlink="http://www.w3.org/1999/xlink" width="91.22018" height="91.22018" viewBox="0,0,91.22018,91.22018"><g transform="translate(-42.23658,-92.69564)"><g data-paper-data="{&quot;isPaintingLayer&quot;:true}" fill-rule="nonzero" stroke="#000000" stroke-width="2" stroke-linecap="butt" stroke-linejoin="miter" stroke-miterlimit="10" stroke-dasharray="" stroke-dashoffset="0" style="mix-blend-mode: normal"><path d="M43.23658,182.91582v-89.22018h89.22018v89.22018z" fill="#3a4a34"/><path d="M122.20566,137.81401c0,17.76475 -14.9016,32.16592 -33.28366,32.16592c-18.38206,0 -33.28366,-14.40117 -33.28366,-32.16592c0,-17.76475 14.9016,-32.16592 33.28366,-32.16592c18.38206,0 33.28366,14.40117 33.28366,32.16592z" fill="#7d6e0e"/><path d="M117.98311,137.8358c0,15.44473 -12.9555,27.96515 -28.93691,27.96515c-15.98141,0 -28.93691,-12.52042 -28.93691,-27.96515c0,-15.44473 12.9555,-27.96515 28.93691,-27.96515c15.98141,0 28.93691,12.52042 28.93691,27.96515z" fill="#7d6e0e"/></g></g></svg>