<svg version="1.1" xmlns="http://www.w3.org/2000/svg" xmlns:xlink="http://www.w3.org/1999/xlink" width="172.66362" height="40.09434" viewBox="0,0,172.66362,40.09434"><g transform="translate(-192.36378,-219.95283)"><g data-paper-data="{&quot;isPaintingLayer&quot;:true}" fill-rule="nonzero" stroke-linecap="butt" stroke-linejoin="miter" stroke-miterlimit="10" stroke-dasharray="" stroke-dashoffset="0" style="mix-blend-mode: normal"><path d="M212.89041,258.95283v-38h151.13699v38z" fill="#4a5f43" stroke="#5e0000" stroke-width="2"/><path d="M193.36378,240c0,-10.51946 8.74237,-19.04717 19.52663,-19.04717c10.78426,0 19.52663,8.52771 19.52663,19.04717c0,10.51946 -8.74237,19.04717 -19.52663,19.04717c-10.78426,0 -19.52663,-8.52771 -19.52663,-19.04717z" fill="#4a5f43" stroke="#5e0000" stroke-width="2"/><path d="M223.44911,257.91819c-2.09909,0.59779 -4.69932,0.26903 -7.15619,0.17925c-1.35662,-0.04957 -4.50734,-0.79951 -3.94065,-2.87736c0.95672,-3.50796 6.05443,-2.68998 9.11188,-2.60147c2.22151,-1.89546 7.73638,-5.78593 8.7768,-7.50799c0.3397,-0.56225 -0.48229,-3.44467 -0.52282,-4.13276c-0.24866,-4.22169 -2.26267,-8.70502 -3.49793,-12.71931c-0.10628,-0.34538 -1.87079,-0.2965 -2.31132,-0.34979c-1.45908,-0.1765 -2.91265,-0.29429 -4.36722,-0.41422c-4.43668,0.40341 -10.58561,0.08876 -10.58561,-2.27446c0,-2.25559 2.97229,-2.69683 5.82717,-2.80831c0.33363,-0.165 0.70938,-0.25772 1.10679,-0.25772c0.20929,0 0.41257,0.02572 0.60686,0.07416c0.73582,-0.12202 1.51997,-0.06186 2.34951,0.05477c0.19381,-0.02068 0.36695,-0.04687 0.51561,-0.08038c0.98578,-0.22223 3.88252,-0.79847 4.40063,0.10823c0.21763,0.12844 0.41411,0.28892 0.58294,0.47495c5.89072,0.30317 5.77856,3.44498 7.59238,8.60569c1.65916,4.72066 3.62061,8.79981 3.33887,14.0173c-0.17665,3.27131 -5.14425,8.65179 -8.74932,10.21367c-0.75835,1.25668 -1.82969,1.94015 -3.07836,2.29576z" fill="#4a5f43" stroke="none" stroke-width="0.5"/><text transform="translate(208.35225,245.95283) scale(0.5,0.5)" font-size="40" xml:space="preserve" fill="#ffffff" fill-rule="nonzero" stroke="none" stroke-width="1" stroke-linecap="butt" stroke-linejoin="miter" stroke-miterlimit="10" stroke-dasharray="" stroke-dashoffset="0" font-family="Handwriting" font-weight="normal" text-anchor="start" style="mix-blend-mode: normal"><tspan x="0" dy="0">Don't Shoot NPC!</tspan></text></g></g></svg>