<svg version="1.1" xmlns="http://www.w3.org/2000/svg" xmlns:xlink="http://www.w3.org/1999/xlink" width="103.49605" height="181.88784" viewBox="0,0,103.49605,181.88784"><g transform="translate(-188.11393,-98.55608)"><g data-paper-data="{&quot;isPaintingLayer&quot;:true}" fill-rule="nonzero" stroke="#000000" stroke-width="2" stroke-linejoin="miter" stroke-miterlimit="10" stroke-dasharray="" stroke-dashoffset="0" style="mix-blend-mode: normal"><path d="M234.52255,279.44392l24.87749,-51.5409l31.20994,48.00378" fill="none" stroke-linecap="round"/><path d="M259.40004,227.39772l-1.80927,-64.67878" fill="none" stroke-linecap="round"/><path d="M231.35633,187.9841l26.23444,-25.77045l-18.09271,37.39243" fill="none" stroke-linecap="round"/><path d="M237.09339,206.26182l-15.83492,-17.77415l6.76192,-7.5182l15.83492,17.77415z" fill="#808080" stroke-linecap="butt"/><path d="M217.77053,192.02799l-25.95001,-25.40897l-2.43051,-16.28882l14.18726,7.25774l25.38881,20.39359z" fill="#808080" stroke-linecap="butt"/><path d="M227.35158,130.88486c0,-17.30241 12.55559,-31.32878 28.04371,-31.32878c15.48811,0 28.04371,14.02637 28.04371,31.32878c0,17.30241 -12.55559,31.32878 -28.04371,31.32878c-15.48811,0 -28.04371,-14.02637 -28.04371,-31.32878z" fill="#ff9400" stroke-linecap="butt"/></g></g></svg>