<svg version="1.1" xmlns="http://www.w3.org/2000/svg" xmlns:xlink="http://www.w3.org/1999/xlink" width="91.22019" height="91.22019" viewBox="0,0,91.22019,91.22019"><g transform="translate(-244.93929,-92.69564)"><g data-paper-data="{&quot;isPaintingLayer&quot;:true}" fill-rule="nonzero" stroke="#000000" stroke-width="2" stroke-linecap="butt" stroke-linejoin="miter" stroke-miterlimit="10" stroke-dasharray="" stroke-dashoffset="0" style="mix-blend-mode: normal"><path d="M245.93929,182.91582v-89.22018h89.22019v89.22019z" fill="#3a4a34"/><path d="" fill="#4a4a4a"/><path d="" fill="#4a4a4a"/><path d="" fill="#4a4a4a"/><path d="" fill="#4a4a4a"/><g><path d="M279.4281,144.2928c-0.05089,0.4351 -0.09866,0.87079 -0.13971,1.30783c0.41861,1.93818 1.0448,3.18836 1.92792,4.946c1.06049,2.11066 1.82376,4.40086 3.47127,6.16953c2.19774,2.35936 5.05156,4.46063 6.85147,7.16031c0.10313,0.15469 0.20489,0.31311 0.30555,0.47433l2.33995,5.30849l-12.20804,5.38124c-1.09322,-0.91869 -2.1076,-1.92227 -2.86739,-3.05956c-0.96046,-1.43767 -1.60547,-3.30313 -2.30367,-4.88707c-1.04353,-2.36739 -2.49777,-4.53291 -3.40795,-6.9544c-0.70011,-1.86261 -1.00117,-3.75914 -1.49367,-5.67389c-0.39431,-1.53302 -1.65797,-3.09335 -1.90127,-4.59682c-0.08739,-0.54003 0.23072,-1.14982 0.67663,-1.71953z" fill="#4a3e17"/><g><path d="M270.81553,147.86688l-4.09795,-7.53685c-0.06653,-2.85718 2.07274,-4.08679 3.09834,-6.6698c0.34151,-0.86011 0.36703,-1.83532 0.77524,-2.66584c0.77231,-1.5713 1.91541,-3.64179 3.16991,-5.1435l16.43775,-8.93756l8.56706,15.75633z" fill="#4a4a4a"/><path d="M284.79071,140.26827l11.09794,-6.03419l1.04211,1.91663l0.00504,0.14675l0.02372,0.0827l-0.00591,0.08584l0.04864,0.27309l0.00802,0.23336l-0.01391,0.04707l-0.00624,0.14703l-0.04171,0.14112l-0.01416,0.33376l0.01947,0.09481l-0.01231,0.09601l0.01763,0.14938l-0.01861,0.127l0.00337,0.0338l-0.01117,0.03208l-0.01856,0.20573l0.01166,0.07463l-0.01579,0.07387l0.00445,0.1295l-0.03059,0.17129l-0.0731,0.24731l-0.00815,0.19199l-0.04017,0.18791l0.00625,0.18169l-0.02746,0.3043l-0.03401,0.23213l-0.06121,0.34275l0.00131,0.01913l-0.0073,0.01773l-0.02129,0.14528l-0.11363,0.2861l-0.02288,0.17093l-0.05669,0.16287l-0.03247,0.3598l-0.11631,0.65126l-0.10619,0.49672l0.00071,0.02078l-0.00851,0.01897l-0.05286,0.29596l-0.05109,0.17286l-0.32126,0.72506l-0.12209,0.20725l-0.37614,0.58241l-0.00393,0.01152l-0.00872,0.00849l-0.18062,0.29222l-0.1157,0.12394l-0.07627,0.06365l-1.20134,0.65319l-0.16597,0.05145l-0.10178,0.06179l-0.11527,0.0298l-0.01171,0.00637l-0.0459,0.00037l-0.10393,0.02687l-0.0886,-0.01652l-0.00837,-0.00344l-0.02732,-0.01906l-0.25666,-0.09783l-0.254,-0.10454l-0.03296,-0.00483l-0.03208,-0.01223l-0.01214,0.00575l-0.00366,-0.00054l-0.0016,-0.00084l-0.11566,-0.02828l-0.10259,-0.06043l-0.3108,-0.09186l-0.08201,-0.00348l-0.16829,-0.06415l-0.16557,-0.09753l-0.27195,-0.08038l-0.03045,-0.01794l-0.02881,-0.0201l-0.01504,-0.00573l-0.06962,-0.04101l-0.01211,-0.00358l-0.03012,-0.02694l-0.29969,-0.15785l-0.1491,-0.10402l-0.0438,-0.01669l-0.03341,-0.03288l-0.24828,-0.14626l-0.02664,-0.01858l-0.09202,-0.07631l-0.00055,-0.00234l-0.00784,-0.00462l-0.09881,-0.08193l-0.15182,-0.07283l-0.03595,-0.04308l-0.12897,-0.09412l-0.10488,-0.12039l-0.14046,-0.09799l-0.20277,-0.18929l-0.07526,-0.04171l-0.05652,-0.06487l-0.21013,-0.1466l-0.07058,-0.0269l-0.0563,-0.05036l-0.11692,-0.06158l-0.04148,-0.02894l-0.07103,-0.07733l-0.06865,-0.04526l-0.04868,-0.06627l-0.21046,-0.17451l-0.10675,-0.09966l-0.07526,-0.04171l-0.05652,-0.06487l-0.21013,-0.1466l-0.0438,-0.0167l-0.03341,-0.03287l-0.28783,-0.16956l-0.02795,-0.00826l-0.02172,-0.01943l-0.29969,-0.15785l-0.25416,-0.17731l-0.07058,-0.0269l-0.0094,-0.00841l-0.00446,-0.00485l-0.18043,-0.2071l-0.02732,-0.01906l-0.02323,-0.02528l-0.01342,-0.00028l-0.25123,-0.17527l-0.17956,-0.06844l-0.0521,-0.03069l-0.02881,-0.0201l-0.01504,-0.00573l-0.00009,-0.00005l-0.03542,-0.03856l-0.03115,-0.00066l-0.00296,-0.00174l-0.1554,-0.04593l-0.00347,-0.00015l-0.14058,-0.05358zM290.93065,140.93438c0.33108,0.54713 1.34479,1.57179 2.32563,2.04636c-0.1411,0.16681 -0.2767,0.33802 -0.40423,0.51504c-0.11642,-0.02357 -0.24041,-0.01273 -0.3557,0.03732c-0.0047,-0.00275 -0.00944,-0.00543 -0.01421,-0.00804c-0.08319,-0.07253 -0.18437,-0.11988 -0.29119,-0.13841c-0.07842,-0.1235 -0.18005,-0.19439 -0.18005,-0.19439l-0.14367,-0.09808c-0.19342,-0.11237 -0.39335,-0.21503 -0.59819,-0.30679c-0.6511,-0.62116 -1.32455,-1.15833 -2.22069,-1.55404c0,0 -0.20622,-0.09006 -0.42086,-0.03312c-0.47333,-0.4302 -0.92382,-0.8532 -1.50684,-1.19876c0,0 -0.51498,-0.30337 -0.81835,0.21161c-0.30337,0.51498 0.21161,0.81835 0.21161,0.81835c0.75364,0.44085 1.26198,1.04015 1.92694,1.59386l0.10113,0.1182c0,0 0.15813,0.17215 0.38427,0.20224c0.26989,0.07965 0.56507,0.19088 0.85732,0.32424c0.08765,0.29317 0.4136,0.38951 0.4136,0.38951c0.13982,0.04014 0.27793,0.08769 0.4135,0.14197c0.2712,0.26581 0.54051,0.54389 0.82841,0.82426l0.102,0.00831l-0.02034,0.04084l0.61851,0.30803c0.16998,0.08745 0.37885,0.092 0.55944,-0.00619c0.03961,-0.02154 0.07581,-0.0469 0.10839,-0.07538c0.28606,0.11315 0.5059,-0.04533 0.61191,-0.15037c1.11182,-0.2918 1.40824,-0.81133 1.6212,-2.09257l-0.00293,-0.0198c0.12312,-0.44182 0.1836,-1.15216 0.21471,-1.42715c0.13644,-1.20586 0.37721,-2.18123 0.61754,-3.34727c0.07674,-0.37234 0.38923,-0.85822 0.12695,-1.13342c-0.29497,-0.30951 -0.83327,-0.13133 -1.27252,-0.15166c-0.18217,-0.15645 -0.43298,-0.14783 -0.43298,-0.14783l-0.393,0.07665c-0.33287,0.18482 -0.6662,0.40638 -0.99031,0.6512c-0.26175,-0.06838 -0.50261,0.09949 -0.50261,0.09949l-0.3994,0.30961c-0.05847,0.01139 -0.11621,0.03179 -0.17131,0.06175c-0.11481,0.06242 -0.20097,0.15701 -0.2534,0.2665c-0.17407,-0.09996 -0.39441,-0.10991 -0.58369,-0.007c-0.29,0.15768 -0.39727,0.5206 -0.23959,0.8106c0.03359,0.06178 0.0765,0.11527 0.12603,0.15967c-0.15673,0.67323 -0.33025,1.45128 0.04697,2.07466z" fill="#4a4a4a"/><path d="M291.97899,120.61995l-1.9369,-3.5623l29.5945,-16.09118l1.9369,3.5623z" fill="#4a4a4a"/><path d="M316.54784,102.46838l-1.26644,-2.3292l2.46621,-1.34093l1.26644,2.3292z" fill="#4a4a4a"/><path d="M282.66113,135.80474l-4.61876,-8.49472l10.27587,-5.58721l4.61876,8.49472z" fill="#4a4a4a"/></g></g></g></g></svg>