<svg version="1.1" xmlns="http://www.w3.org/2000/svg" xmlns:xlink="http://www.w3.org/1999/xlink" width="199.36174" height="63.67731" viewBox="0,0,199.36174,63.67731"><g transform="translate(-166.00813,-219.95283)"><g data-paper-data="{&quot;isPaintingLayer&quot;:true}" fill-rule="nonzero" stroke-linecap="butt" stroke-linejoin="miter" stroke-miterlimit="10" stroke-dasharray="" stroke-dashoffset="0" style="mix-blend-mode: normal"><path d="M185.39082,282.63014v-61.63014h178.97906v61.63014z" fill="#4a5f43" stroke="#5e0000" stroke-width="2"/><path d="M167.00813,251.7679c0,-17.01869 8.74237,-30.81507 19.52663,-30.81507c10.78426,0 19.52663,13.79638 19.52663,30.81507c0,17.01869 -8.74237,30.81507 -19.52663,30.81507c-10.78426,0 -19.52663,-13.79638 -19.52663,-30.81507z" fill="#4a5f43" stroke="#5e0000" stroke-width="2"/><path d="M197.09346,281.99893c-2.09909,0.99653 -4.69932,0.44848 -7.15619,0.29882c-1.35662,-0.08263 -4.50734,-1.33281 -3.94065,-4.79665c0.95672,-5.84788 6.05443,-4.48428 9.11188,-4.33673c2.22151,-3.15979 7.73638,-9.64533 8.7768,-12.51605c0.3397,-0.93729 -0.48229,-5.74237 -0.52282,-6.88944c-0.24866,-7.03769 -2.26267,-14.51154 -3.49793,-21.20349c-0.10628,-0.57576 -1.87079,-0.49427 -2.31132,-0.58311c-1.45908,-0.29423 -2.91265,-0.49059 -4.36722,-0.69052c-4.43668,0.6725 -10.58561,0.14797 -10.58561,-3.7916c0,-3.76014 2.97229,-4.4957 5.82717,-4.68154c0.33363,-0.27506 0.70938,-0.42963 1.10679,-0.42963c0.20929,0 0.41257,0.04288 0.60686,0.12363c0.73582,-0.20341 1.51997,-0.10312 2.34951,0.0913c0.19381,-0.03447 0.36695,-0.07813 0.51561,-0.134c0.98578,-0.37046 3.88252,-1.33107 4.40063,0.18042c0.21763,0.21411 0.41411,0.48164 0.58294,0.79176c5.89072,0.50539 5.77856,5.74289 7.59238,14.34596c1.65916,7.86949 3.62061,14.66956 3.33887,23.36728c-0.17665,5.45338 -5.14425,14.42281 -8.74932,17.02651c-0.75835,2.09492 -1.82969,3.23429 -3.07836,3.8271z" fill="#4a5f43" stroke="none" stroke-width="0.5"/><text transform="translate(182.43587,245.37852) scale(0.44821,0.44821)" font-size="40" xml:space="preserve" fill="#ffffff" fill-rule="nonzero" stroke="none" stroke-width="1" stroke-linecap="butt" stroke-linejoin="miter" stroke-miterlimit="10" stroke-dasharray="" stroke-dashoffset="0" font-family="Handwriting" font-weight="normal" text-anchor="start" style="mix-blend-mode: normal"><tspan x="0" dy="0">You acquired the shotgun</tspan></text><text transform="translate(182.43587,272.45325) scale(0.42364,0.42364)" font-size="40" xml:space="preserve" fill="#ffffff" fill-rule="nonzero" stroke="none" stroke-width="1" stroke-linecap="butt" stroke-linejoin="miter" stroke-miterlimit="10" stroke-dasharray="" stroke-dashoffset="0" font-family="Handwriting" font-weight="normal" text-anchor="start" style="mix-blend-mode: normal"><tspan x="0" dy="0">Press Q to switch weapon</tspan></text></g></g></svg>