<svg version="1.1" xmlns="http://www.w3.org/2000/svg" xmlns:xlink="http://www.w3.org/1999/xlink" width="91.22018" height="91.22019" viewBox="0,0,91.22018,91.22019"><g transform="translate(-143.58794,-92.69564)"><g data-paper-data="{&quot;isPaintingLayer&quot;:true}" fill-rule="nonzero" stroke-linecap="butt" stroke-linejoin="miter" stroke-miterlimit="10" stroke-dasharray="" stroke-dashoffset="0" style="mix-blend-mode: normal"><path d="M144.58794,182.91582v-89.22018h89.22018v89.22019z" fill="#3a4a34" stroke="#000000" stroke-width="2"/><g><g fill="#3d3d1c"><g stroke="#000000" stroke-width="2"><path d="M183.55269,151.7111l0.4593,-12.44447l5.35401,0.19761l-0.4593,12.44447z"/><path d="M162.50658,162.24942l-6.57884,-9.35826l27.24557,-19.15359l6.57884,9.35826z"/></g><path d="M189.66887,142.97737l-6.32901,-9.00288l9.12134,-6.41229l6.32901,9.00288z" stroke="#000000" stroke-width="2"/><path d="M165.26099,166.15415l-5.74608,-8.17367l14.68892,-10.32628l3.62052,5.15012c-0.57281,0.60058 -1.07227,1.35845 -1.64992,1.85589c-1.87636,1.61584 -5.69196,5.65595 -7.75927,9.27657z" stroke="#000000" stroke-width="2"/><path d="M176.58713,152.8738c-0.28574,0.20088 -0.6265,0.26531 -0.94488,0.2068c-0.39563,0.33208 -0.7917,0.56539 -1.16765,0.6608c-0.72348,0.18362 -1.32572,-1.13425 -2.04104,-0.92106c-1.07663,0.32088 -4.43684,3.51292 -6.51903,3.76481c0.05334,0.72643 -0.18814,1.54571 -0.8481,2.43897c-1.69419,2.29309 -6.44426,-2.18648 -5.73656,-3.69396l1.05453,-2.24628c0.63912,-0.05999 1.36999,0.01847 2.08657,0.21919c0.15123,-0.5318 0.47901,-1.01713 0.96655,-1.35987c0.3016,-0.21203 0.63386,-0.34805 0.974,-0.41204c2.22284,-1.94371 6.23893,-2.79235 8.68356,-4.78492c1.40787,-1.14752 3.63549,-4.44071 5.72353,-1.47052c0.38737,0.55102 0.33072,1.54462 -0.00319,2.66355c0.56569,0.82314 -0.90017,3.12042 -1.71775,4.13776c-0.0571,0.31096 -0.23147,0.60059 -0.51055,0.79678z" stroke="none" stroke-width="0.5"/><path d="M184.65012,148.4774c-0.06577,-0.09355 -0.11691,-0.19301 -0.1539,-0.29564l-0.0458,-0.11888l-0.0804,-0.18232l-0.02831,-0.16454l-0.0641,-0.15416l-0.0895,-0.59587l0.01924,-0.20001l-0.01452,-0.20041l0.04262,-0.24438l0.00677,-0.07043l-0.02105,-0.07613l-0.0088,-0.35553l-0.01725,-0.07296l-0.01368,-0.04567l-0.01527,-0.00823l-0.07503,-0.27139l-0.10123,-0.26274l0.018,-0.03834l-0.0134,-0.04847l-0.00079,-0.03177l-0.02571,-0.1087l0.00068,-0.05304l-0.02037,-0.04898l-0.01492,-0.09931l0.04698,-0.48844l-0.63323,0.42133l-0.14687,0.0523l-0.01542,0.01691l-0.02517,0.00062l-0.14635,0.08693l-0.13605,0.04075l-0.09732,0.00448l-0.03971,0.01414l-0.0225,-0.01128l-0.48402,0.02228l-0.13764,-0.13099l-0.17057,0.00422l-0.25501,-0.40926l-0.02454,-0.02336l-0.03194,-0.01601l-0.00105,-0.01539l-0.29177,-0.27768l0.03859,-0.1662l-0.10048,-0.16126l0.15903,-0.6243l0.19061,-0.3536l0.08193,-0.08984l0.05203,-0.1099l0.45087,-0.54951l-0.06611,0.00459l-0.09201,-0.08357l-0.10375,0.01558l-0.31575,-0.3892l-0.01589,-0.00356l-0.00837,-0.02593l-0.39669,-0.36033l0.02135,-0.10272l-0.07831,-0.09653l0.07653,-0.60863l-0.00151,-0.00466l0.00273,-0.00506l0.00262,-0.02085l0.05857,-0.15097l0.13267,-0.18781l0.10911,-0.20241l0.55548,-0.6091l0.31233,-0.34666l-0.00472,-0.07483l-0.19219,-0.27736l0.12843,-0.6313l0.0057,-0.01194l-0.00121,-0.0192l0.0216,-0.02349l0.3293,-0.68931l0.04109,-0.04972l-0.36011,-1.20242l0.31769,-0.56046l0.15788,-0.16589l0.10514,-0.06668l0.08145,-0.09417l0.29393,-0.20663l0.1875,-0.07224l0.00399,-0.00237l0.01159,-0.0215l0.04603,-0.01272l0.11116,-0.06602l0.13605,-0.04075l0.07186,-0.00331l0.03299,-0.01271l0.02171,0.01019l0.04023,-0.00185l0.13657,-0.03776l0.5838,-0.32051l0.91059,-0.53709l0.58376,-0.41038l0.04251,-0.01638l0.03218,-0.03224l0.5402,-0.32486l0.05719,-0.01747l0.04602,-0.03818l0.15301,-0.07346l0.02559,-0.01799l0.06018,-0.02319l0.0075,-0.0036l0.00395,-0.00081l0.24577,-0.09469l0.01033,-0.00563l0.00235,0.00075l0.27109,-0.10445l1.14032,0.53533l0.08339,0.88838l0.04917,0.02309l0.54369,0.21164l0.00768,0.0472l0.04329,0.02032l0.05452,0.58087l0.0968,0.59498l-0.03641,0.04836l0.00007,0.00069l0.30502,-0.00755l0.18401,0.29532l0.30161,0.17351l0.0033,0.31582l0.17728,0.28451l-0.15903,0.6243l-0.00858,0.01592l0.00005,0.00521l0.00089,0.00946l-0.00078,0.0009l0.00004,0.00355l-0.02022,0.01979l-0.00252,0.00291l-0.01653,0.03066l-0.19354,0.21222l-0.18789,0.21724l-0.02849,0.02003l-0.02419,0.02653l-0.01404,0.00035l-0.70565,0.49607l-0.15702,0.14764l-0.06652,0.26111l0.22744,0.12099l0.18653,0.00635l0.06345,0.11657l0.37589,0.17646l0.00331,0.03531l0.03131,0.01665l0.02227,0.51014l0.42294,0.19855l0.01595,0.16988l0.14632,0.12121l0.04655,0.64255l-0.02182,0.12514l-0.04139,0.09329l0.01455,0.06064l-0.13396,0.20845l-0.1005,0.22649l-0.05866,0.02118l-0.05518,0.08586l-0.23136,0.21754l-0.07854,0.04389l-0.05886,0.06805l-0.04571,0.03213l-0.07255,0.07623l-0.10514,0.06668l-0.03123,0.03611l-0.0021,0.00344l-0.00592,0.00583l-0.04219,0.04878l-0.02559,0.01799l-0.12092,0.11911l-0.08999,0.05308l-0.06834,0.07902l-1.19276,0.83851l0.08037,0.24474l0.00393,0.05427l0.06401,0.16613l0.06365,0.15308l0.02286,0.03848l0.01765,0.05893l0.00612,0.01471l0.00172,0.01146l0.03261,0.10887l0.01081,0.00896l0.00259,0.03581l0.00999,0.03337l0.01321,0.28691l0.00021,0.00291l0.00344,0.00827l0.02983,0.19862l-0.00756,0.07862l0.02105,0.07613l0.004,0.16188l-0.02377,0.10617l0.01167,0.01873l-0.01156,0.0454l0.00546,0.07537l-0.02182,0.12514l-0.0815,0.18367l-0.00489,0.0192l-0.00401,0.05752l-0.03599,0.11061l0.01825,0.04736l-0.03096,0.06595l-0.0488,0.50738l-0.27137,0.21421l-0.01046,0.02358l-0.02311,0.00834l-0.15063,0.32086l-0.08422,0.0079l-0.02515,0.26144l-0.07606,0.06004l0.00192,0.0775l-0.47518,0.29609l-0.14826,0.11703c0.00528,0.07915 0.003,0.15845 -0.00665,0.23677l0.00464,0.03757l-0.01224,0.01502c-0.05302,0.31882 -0.2289,0.61703 -0.51419,0.81759c-0.46417,0.32631 -1.07353,0.29258 -1.49629,-0.04334l-0.01851,-0.00282l-0.02109,-0.03c-0.07598,-0.06569 -0.14521,-0.14166 -0.20559,-0.22755zM185.36674,143.34638l0.00014,-0.00081l-0.00111,0.00069z" stroke="none" stroke-width="0.5"/></g><g stroke="#000000" stroke-width="2"><path d="M220.55344,110.44735c-0.64389,-0.91592 -0.42337,-2.1804 0.49256,-2.8243c0.91592,-0.64389 2.1804,-0.42337 2.8243,0.49256c0.64389,0.91592 0.42337,2.1804 -0.49256,2.8243c-0.91592,0.64389 -2.1804,0.42337 -2.8243,-0.49256z" fill="#000000"/><path d="M195.2992,130.69015l-2.32036,-3.30066l27.26131,-19.16466l2.32036,3.30066z" fill="#3e3e3e"/></g></g></g></g></svg>