<svg version="1.1" xmlns="http://www.w3.org/2000/svg" xmlns:xlink="http://www.w3.org/1999/xlink" width="409.18716" height="308.26324" viewBox="0,0,409.18716,308.26324"><g transform="translate(-35.40642,-85.86838)"><g data-paper-data="{&quot;isPaintingLayer&quot;:true}" fill-rule="nonzero" stroke="#000000" stroke-width="2" stroke-linecap="butt" stroke-linejoin="miter" stroke-miterlimit="10" stroke-dasharray="" stroke-dashoffset="0" style="mix-blend-mode: normal"><g><path d="M36.40642,393.13162v-306.26324h407.18716v306.26324z" fill="#4a5f43"/><path d="M43.23658,182.91582v-89.22018h89.22018v89.22018z" fill="#3a4a34"/><path d="M144.58794,182.91582v-89.22018h89.22018v89.22019z" fill="#3a4a34"/><path d="M245.93929,182.91582v-89.22018h89.22019v89.22019z" fill="#3a4a34"/><path d="M347.29064,182.91582v-89.22018h89.22019v89.22019z" fill="#3a4a34"/><path d="M43.23658,284.26717v-89.22019h89.22019v89.22019z" fill="#3a4a34"/><path d="M144.58793,284.26717v-89.22019h89.22019v89.22019z" fill="#3a4a34"/><path d="M245.93929,284.26717v-89.22019h89.22019v89.22019z" fill="#3a4a34"/><path d="M347.29064,284.26717v-89.22019h89.22018v89.22019z" fill="#3a4a34"/><path d="M43.23658,385.61852v-89.22019h89.22019v89.22019z" fill="#3a4a34"/><path d="M144.58793,385.61852v-89.22019h89.22019v89.22019z" fill="#3a4a34"/><path d="M245.93929,385.61852v-89.22019h89.22019v89.22019z" fill="#3a4a34"/><path d="M347.29064,385.61852v-89.22019h89.22018v89.22019z" fill="#3a4a34"/></g></g></g></svg>