<svg version="1.1" xmlns="http://www.w3.org/2000/svg" xmlns:xlink="http://www.w3.org/1999/xlink" width="557.86209" height="515.67695" viewBox="0,0,557.86209,515.67695"><g transform="translate(37.84005,12.3835)"><g stroke-miterlimit="10"><path d="M310.25514,101.71686l0.74473,127.59754c-1.09112,-0.5099 -2.1023,-1.25363 -3.28245,-1.45593c-0.69134,-0.11851 -2.1036,-0.17778 -3.72736,-0.20512l-0.7348,-125.89565z" fill="#000000" stroke="#000000" stroke-width="2"/><path d="M311.83682,372.71224l-6.99988,0.04086l-0.69896,-119.75573c0.59559,-0.06761 1.19175,-0.13695 1.7887,-0.20762c1.00956,0.33542 2.09028,0.51419 3.21314,0.50764c0.68492,-0.004 1.35336,-0.07676 1.9988,-0.21171z" fill="#000000" stroke="#000000" stroke-width="2"/><path d="M11.25439,102.46198l1.58169,270.99538l-6.99988,0.04086l-1.58169,-270.99538z" fill="#000000" stroke="#000000" stroke-width="2"/><path d="M311.78429,363.71239l0.04669,7.99986l-302.99484,1.76845l-0.04669,-7.99986z" fill="#000000" stroke="#000000" stroke-width="2"/><path d="M310.25514,101.71686l0.05836,9.99983l-302.99484,1.76845l-0.05836,-9.99983z" fill="#000000" stroke="#000000" stroke-width="2"/><path d="M303.55069,274.75893l0.04586,7.85701l-44.99923,0.26264l-0.04586,-7.85701z" fill="#000000" stroke="#000000" stroke-width="2"/><path d="M305.30163,207.60471l0.04169,7.14274l-46.42778,0.27098l-0.04169,-7.14274z" fill="#000000" stroke="#000000" stroke-width="2"/><path d="M235.00962,280.15906l0.20011,34.28513l-9.28555,0.0542l-0.20011,-34.28513z" fill="#000000" stroke="#000000" stroke-width="2"/><path d="M269.41981,301.38716l0.15425,26.42812l-7.85701,0.04586l-0.15425,-26.42812z" fill="#000000" stroke="#000000" stroke-width="2"/><path d="M286.61658,310.57267l0.02918,4.99991l-18.57111,0.10839l-0.02918,-4.99991z" fill="#000000" stroke="#000000" stroke-width="2"/><path d="M275.02977,283.49697l0.07921,13.5712l-7.85701,0.04586l-0.07921,-13.5712z" fill="#000000" stroke="#000000" stroke-width="2"/><path d="M282.43514,328.45452l0.09172,15.71402l-48.5706,0.28349l-0.09172,-15.71402z" fill="#000000" stroke="#000000" stroke-width="2"/><path d="M210.62009,262.44397l0.58365,99.9983l-9.28555,0.0542l-0.58365,-99.9983z" fill="#000000" stroke="#000000" stroke-width="2"/><path d="M240.39446,223.6981l0.05836,9.99983l-72.8559,0.42523l-0.05836,-9.99983z" fill="#000000" stroke="#000000" stroke-width="2"/><path d="M187.60492,235.43498l0.16259,27.85667l-6.42846,0.03752l-0.16259,-27.85667z" fill="#000000" stroke="#000000" stroke-width="2"/><path d="M229.87351,134.47226l0.51278,87.85564l-4.99991,0.02918l-0.51278,-87.85564z" fill="#000000" stroke="#000000" stroke-width="2"/><path d="M264.98965,154.26765l0.03752,6.42846l-35.71368,0.20845l-0.03752,-6.42846z" fill="#000000" stroke="#000000" stroke-width="2"/><path d="M265.45379,111.40707l0.13757,23.57103l-7.85701,0.04586l-0.13757,-23.57103z" fill="#000000" stroke="#000000" stroke-width="2"/><path d="M303.40617,127.61441l0.03752,6.42846l-23.57103,0.13757l-0.03752,-6.42846z" fill="#000000" stroke="#000000" stroke-width="2"/><path d="M283.00073,180.59156l0.15008,25.71385l-7.85701,0.04586l-0.15008,-25.71385z" fill="#000000" stroke="#000000" stroke-width="2"/><path d="M301.42593,155.48359l0.04586,7.85701l-15.71402,0.09172l-0.04586,-7.85701z" fill="#000000" stroke="#000000" stroke-width="2"/><path d="M275.20626,191.35151l0.03752,6.42846l-30.71377,0.17926l-0.03752,-6.42846z" fill="#000000" stroke="#000000" stroke-width="2"/><path d="M248.60305,161.50628l0.08755,14.99974l-4.99991,0.02918l-0.08755,-14.99974z" fill="#000000" stroke="#000000" stroke-width="2"/><path d="M222.78497,143.79952l0.0542,9.28555l-47.85632,0.27932l-0.0542,-9.28555z" fill="#000000" stroke="#000000" stroke-width="2"/><path d="M169.35621,168.39748l0.34602,59.2847l-7.14274,0.04169l-0.34602,-59.2847z" fill="#000000" stroke="#000000" stroke-width="2"/><path d="M181.24455,124.75593l0.12924,22.14248l-6.42846,0.03752l-0.12924,-22.14248z" fill="#000000" stroke="#000000" stroke-width="2"/><path d="M167.23423,171.98136l0.03335,5.71419l-54.99906,0.32101l-0.03335,-5.71419z" fill="#000000" stroke="#000000" stroke-width="2"/><path d="M131.93049,120.04367l0.29599,50.71343l-7.14274,0.04169l-0.29599,-50.71343z" fill="#000000" stroke="#000000" stroke-width="2"/><path d="M52.85457,156.2201l0.03335,5.71419l-42.14214,0.24597l-0.03335,-5.71419z" fill="#000000" stroke="#000000" stroke-width="2"/><path d="M58.31029,111.90179l0.18343,31.42803l-7.14274,0.04169l-0.18343,-31.42803z" fill="#000000" stroke="#000000" stroke-width="2"/><path d="M100.66921,148.79804l0.03752,6.42846l-32.14231,0.1876l-0.03752,-6.42846z" fill="#000000" stroke="#000000" stroke-width="2"/><path d="M94.82176,113.11728l0.11256,19.28538l-4.06008,0.0237l-0.11256,-19.28538z" fill="#000000" stroke="#000000" stroke-width="2"/><path d="M141.62738,312.8475l0.02918,4.99991l-112.14095,0.65452l-0.02918,-4.99991z" fill="#000000" stroke="#000000" stroke-width="2"/><path d="M119.13054,252.26348l0.34185,58.57043l-5.71419,0.03335l-0.34185,-58.57043z" fill="#000000" stroke="#000000" stroke-width="2"/><path d="M117.98687,178.69748l0.39605,67.85598l-4.28564,0.02501l-0.39605,-67.85598z" fill="#000000" stroke="#000000" stroke-width="2"/><path d="M114.48221,190.1467l0.03335,5.71419l-51.42769,0.30016l-0.03335,-5.71419z" fill="#000000" stroke="#000000" stroke-width="2"/><path d="M97.20624,167.39l0.1209,20.71394l-4.99991,0.02918l-0.1209,-20.71394z" fill="#000000" stroke="#000000" stroke-width="2"/><path d="M200.91208,312.50148l0.04586,7.85701l-48.5706,0.28349l-0.04586,-7.85701z" fill="#000000" stroke="#000000" stroke-width="2"/><path d="M154.2967,280.63015l0.02918,4.99991l-36.42795,0.21261l-0.02918,-4.99991z" fill="#000000" stroke="#000000" stroke-width="2"/><path d="M167.45379,331.9828l0.18343,31.42803l-9.28555,0.0542l-0.18343,-31.42803z" fill="#000000" stroke="#000000" stroke-width="2"/><path d="M138.80363,318.57836l0.17926,30.71377l-7.85701,0.04586l-0.17926,-30.71377z" fill="#000000" stroke="#000000" stroke-width="2"/><path d="M118.03961,333.63263l0.45983,29.35072l-9.99983,0.05836l-2.19259,-29.62913z" fill="#000000" stroke="#000000" stroke-width="2"/><path d="M93.09847,320.27372l0.17093,29.28521l-6.42846,0.03752l-0.17093,-29.28521z" fill="#000000" stroke="#000000" stroke-width="2"/><path d="M68.90905,336.84376l0.15425,26.42812l-5.71419,0.03335l-0.15425,-26.42812z" fill="#000000" stroke="#000000" stroke-width="2"/><path d="M43.09515,319.85127l0.16676,28.57094l-7.85701,0.04586l-0.16676,-28.57094z" fill="#000000" stroke="#000000" stroke-width="2"/><path d="M66.83849,226.85396l0.15008,25.71385l-7.14274,0.04169l-0.15008,-25.71385z" fill="#000000" stroke="#000000" stroke-width="2"/><g fill="#000000" stroke="#000000" stroke-width="2"><g><path d="M483.49861,410.25427l0.0438,7.50456l-484.04429,2.82516l-0.0438,-7.50456z"/><path d="M480.5019,57.54531l2.08055,356.46673l-9.3807,0.05475l-2.08055,-356.46673z"/></g><g><path d="M480.50737,58.48337l0.0438,7.50456l-482.16815,2.81421l-0.0438,-7.50456z"/><path d="M7.7473,65.93318l2.06959,354.59058l-9.3807,0.05475l-2.06959,-354.59058z"/></g></g><path d="M346.00375,210.91932c0,4.14473 -3.14997,7.50469 -7.03565,7.50469c-3.88568,0 -7.03565,-3.35996 -7.03565,-7.50469c0,-4.14473 3.14997,-7.50469 7.03565,-7.50469c3.88568,0 7.03565,3.35996 7.03565,7.50469z" fill="#000000" stroke="#000000" stroke-width="2"/><path d="M388.21763,212.79549c0,3.62664 -3.14997,6.5666 -7.03565,6.5666c-3.88568,0 -7.03565,-2.93997 -7.03565,-6.5666c0,-3.62664 3.14997,-6.5666 7.03565,-6.5666c3.88568,0 7.03565,2.93997 7.03565,6.5666z" fill="#000000" stroke="#000000" stroke-width="2"/><path d="M403.22702,187.93621c0,3.36759 -2.30998,6.09756 -5.15947,6.09756c-2.8495,0 -5.15947,-2.72997 -5.15947,-6.09756c0,-3.36759 2.30998,-6.09756 5.15947,-6.09756c2.8495,0 5.15947,2.72997 5.15947,6.09756z" fill="#000000" stroke="#000000" stroke-width="2"/><path d="M369.45591,175.74109c0,3.88568 -3.77996,7.03565 -8.44278,7.03565c-4.66282,0 -8.44278,-3.14997 -8.44278,-7.03565c0,-3.88568 3.77996,-7.03565 8.44278,-7.03565c4.66282,0 8.44278,3.14997 8.44278,7.03565z" fill="#000000" stroke="#000000" stroke-width="2"/><path d="M387.27955,141.03189c0,3.88568 -3.77996,7.03565 -8.44278,7.03565c-4.66282,0 -8.44278,-3.14997 -8.44278,-7.03565c0,-3.88568 3.77996,-7.03565 8.44278,-7.03565c4.66282,0 8.44278,3.14997 8.44278,7.03565z" fill="#000000" stroke="#000000" stroke-width="2"/><path d="M444.50281,176.67917c0,4.40377 -2.72997,7.97373 -6.09756,7.97373c-3.36759,0 -6.09756,-3.56996 -6.09756,-7.97373c0,-4.40377 2.72997,-7.97373 6.09756,-7.97373c3.36759,0 6.09756,3.56996 6.09756,7.97373z" fill="#000000" stroke="#000000" stroke-width="2"/><path d="M445.4409,141.96998c0,1.81332 -1.67998,3.2833 -3.75235,3.2833c-2.07236,0 -3.75235,-1.46998 -3.75235,-3.2833c0,-1.81332 1.67998,-3.2833 3.75235,-3.2833c2.07236,0 3.75235,1.46998 3.75235,3.2833z" fill="#000000" stroke="#000000" stroke-width="2"/><path d="M421.05066,105.38462c0,2.8495 -2.72997,5.15947 -6.09756,5.15947c-3.36759,0 -6.09756,-2.30998 -6.09756,-5.15947c0,-2.8495 2.72997,-5.15947 6.09756,-5.15947c3.36759,0 6.09756,2.30998 6.09756,5.15947z" fill="#000000" stroke="#000000" stroke-width="2"/><path d="M359.13696,96.94183c0,3.36759 -1.25999,6.09756 -2.81426,6.09756c-1.55427,0 -2.81426,-2.72997 -2.81426,-6.09756c0,-3.36759 1.25999,-6.09756 2.81426,-6.09756c1.55427,0 2.81426,2.72997 2.81426,6.09756z" fill="#000000" stroke="#000000" stroke-width="2"/><path d="M349.7561,139.62477c0,4.14473 -2.72997,7.50469 -6.09756,7.50469c-3.36759,0 -6.09756,-3.35996 -6.09756,-7.50469c0,-4.14473 2.72997,-7.50469 6.09756,-7.50469c3.36759,0 6.09756,3.35996 6.09756,7.50469z" fill="#000000" stroke="#000000" stroke-width="2"/><path d="M329.1182,89.43715c0,2.8495 -2.93997,5.15947 -6.5666,5.15947c-3.62664,0 -6.5666,-2.30998 -6.5666,-5.15947c0,-2.8495 2.93997,-5.15947 6.5666,-5.15947c3.62664,0 6.5666,2.30998 6.5666,5.15947z" fill="#000000" stroke="#000000" stroke-width="2"/><path d="M292.53283,88.03002c0,2.07236 -1.88998,3.75235 -4.22139,3.75235c-2.33141,0 -4.22139,-1.67998 -4.22139,-3.75235c0,-2.07236 1.88998,-3.75235 4.22139,-3.75235c2.33141,0 4.22139,1.67998 4.22139,3.75235z" fill="#000000" stroke="#000000" stroke-width="2"/><path d="M252.19512,87.09193c0,3.10854 -0.62999,5.62852 -1.40713,5.62852c-0.77714,0 -1.40713,-2.51997 -1.40713,-5.62852c0,-3.10854 0.62999,-5.62852 1.40713,-5.62852c0.77714,0 1.40713,2.51997 1.40713,5.62852z" fill="#000000" stroke="#000000" stroke-width="2"/><path d="M190.28142,85.21576c0,2.07236 -3.14997,3.75235 -7.03565,3.75235c-3.88568,0 -7.03565,-1.67998 -7.03565,-3.75235c0,-2.07236 3.14997,-3.75235 7.03565,-3.75235c3.88568,0 7.03565,1.67998 7.03565,3.75235z" fill="#000000" stroke="#000000" stroke-width="2"/><path d="M133.99624,91.78236c0,3.10854 -3.35996,5.62852 -7.50469,5.62852c-4.14473,0 -7.50469,-2.51997 -7.50469,-5.62852c0,-3.10854 3.35996,-5.62852 7.50469,-5.62852c4.14473,0 7.50469,2.51997 7.50469,5.62852z" fill="#000000" stroke="#000000" stroke-width="2"/><path d="M105.85366,73.48968c0,1.29523 -0.83999,2.34522 -1.87617,2.34522c-1.03618,0 -1.87617,-1.04999 -1.87617,-2.34522c0,-1.29523 0.83999,-2.34522 1.87617,-2.34522c1.03618,0 1.87617,1.04999 1.87617,2.34522z" fill="#000000" stroke="#000000" stroke-width="2"/><path d="M80.52532,89.90619c0,3.62664 -1.46998,6.5666 -3.2833,6.5666c-1.81332,0 -3.2833,-2.93997 -3.2833,-6.5666c0,-3.62664 1.46998,-6.5666 3.2833,-6.5666c1.81332,0 3.2833,2.93997 3.2833,6.5666z" fill="#000000" stroke="#000000" stroke-width="2"/><path d="M53.32082,79.58724c0,1.55427 -4.40995,2.81426 -9.84991,2.81426c-5.43995,0 -9.84991,-1.25999 -9.84991,-2.81426c0,-1.55427 4.40995,-2.81426 9.84991,-2.81426c5.43995,0 9.84991,1.25999 9.84991,2.81426z" fill="#000000" stroke="#000000" stroke-width="2"/><path d="M33.621,98.81801c0,1.81332 -2.93997,3.2833 -6.5666,3.2833c-3.62664,0 -6.5666,-1.46998 -6.5666,-3.2833c0,-1.81332 2.93997,-3.2833 6.5666,-3.2833c3.62664,0 6.5666,1.46998 6.5666,3.2833z" fill="#000000" stroke="#000000" stroke-width="2"/><path d="M231.55722,89.90619c0,4.14473 -3.56996,7.50469 -7.97373,7.50469c-4.40377,0 -7.97373,-3.35996 -7.97373,-7.50469c0,-4.14473 3.56996,-7.50469 7.97373,-7.50469c4.40377,0 7.97373,3.35996 7.97373,7.50469z" fill="#000000" stroke="#000000" stroke-width="2"/><path d="M411.66979,88.9681c0,4.14473 -4.19996,7.50469 -9.38086,7.50469c-5.18091,0 -9.38086,-3.35996 -9.38086,-7.50469c0,-4.14473 4.19996,-7.50469 9.38086,-7.50469c5.18091,0 9.38086,3.35996 9.38086,7.50469z" fill="#000000" stroke="#000000" stroke-width="2"/><path d="M464.20263,88.03002c0,3.62664 -2.51997,6.5666 -5.62852,6.5666c-3.10854,0 -5.62852,-2.93997 -5.62852,-6.5666c0,-3.62664 2.51997,-6.5666 5.62852,-6.5666c3.10854,0 5.62852,2.93997 5.62852,6.5666z" fill="#000000" stroke="#000000" stroke-width="2"/><path d="M348.81801,267.67355c0,2.33141 -2.72997,4.22139 -6.09756,4.22139c-3.36759,0 -6.09756,-1.88998 -6.09756,-4.22139c0,-2.33141 2.72997,-4.22139 6.09756,-4.22139c3.36759,0 6.09756,1.88998 6.09756,4.22139z" fill="#000000" stroke="#000000" stroke-width="2"/><path d="M389.15572,272.36398c0,3.36759 -3.35996,6.09756 -7.50469,6.09756c-4.14473,0 -7.50469,-2.72997 -7.50469,-6.09756c0,-3.36759 3.35996,-6.09756 7.50469,-6.09756c4.14473,0 7.50469,2.72997 7.50469,6.09756z" fill="#000000" stroke="#000000" stroke-width="2"/><path d="M429.49343,273.30206c0,2.33141 -2.09998,4.22139 -4.69043,4.22139c-2.59045,0 -4.69043,-1.88998 -4.69043,-4.22139c0,-2.33141 2.09998,-4.22139 4.69043,-4.22139c2.59045,0 4.69043,1.88998 4.69043,4.22139z" fill="#000000" stroke="#000000" stroke-width="2"/><path d="M459.51219,272.83302c0,3.10854 -1.88998,5.62852 -4.22139,5.62852c-2.33141,0 -4.22139,-2.51997 -4.22139,-5.62852c0,-3.10854 1.88998,-5.62852 4.22139,-5.62852c2.33141,0 4.22139,2.51997 4.22139,5.62852z" fill="#000000" stroke="#000000" stroke-width="2"/><path d="M455.75985,298.63039c0,4.40377 -1.46998,7.97373 -3.2833,7.97373c-1.81332,0 -3.2833,-3.56996 -3.2833,-7.97373c0,-4.40377 1.46998,-7.97373 3.2833,-7.97373c1.81332,0 3.2833,3.56996 3.2833,7.97373z" fill="#000000" stroke="#000000" stroke-width="2"/><path d="M387.27955,302.85178c0,2.07236 -3.98996,3.75235 -8.91182,3.75235c-4.92186,0 -8.91182,-1.67998 -8.91182,-3.75235c0,-2.07236 3.98996,-3.75235 8.91182,-3.75235c4.92186,0 8.91182,1.67998 8.91182,3.75235z" fill="#000000" stroke="#000000" stroke-width="2"/><path d="M424.803,305.66604c0,4.66282 -2.72997,8.44278 -6.09756,8.44278c-3.36759,0 -6.09756,-3.77996 -6.09756,-8.44278c0,-4.66282 2.72997,-8.44278 6.09756,-8.44278c3.36759,0 6.09756,3.77996 6.09756,8.44278z" fill="#000000" stroke="#000000" stroke-width="2"/><path d="M343.00416,301.48135c1.1009,3.99585 -0.23365,7.84868 -2.98079,8.60555c-2.74714,0.75687 -5.8666,-1.86885 -6.96749,-5.86469c-1.1009,-3.99585 0.23365,-7.84868 2.98079,-8.60555c2.74714,-0.75687 5.8666,1.86885 6.96749,5.86469z" fill="#000000" stroke="#000000" stroke-width="2"/><path d="M391.03189,343.65853c0,2.8495 -2.93997,5.15947 -6.5666,5.15947c-3.62664,0 -6.5666,-2.30998 -6.5666,-5.15947c0,-2.8495 2.93997,-5.15947 6.5666,-5.15947c3.62664,0 6.5666,2.30998 6.5666,5.15947z" fill="#000000" stroke="#000000" stroke-width="2"/><path d="M362.8893,341.78236c0,2.33141 -2.09998,4.22139 -4.69043,4.22139c-2.59045,0 -4.69043,-1.88998 -4.69043,-4.22139c0,-2.33141 2.09998,-4.22139 4.69043,-4.22139c2.59045,0 4.69043,1.88998 4.69043,4.22139z" fill="#000000" stroke="#000000" stroke-width="2"/><path d="M349.7561,349.7561c0,4.14473 -4.82995,7.50469 -10.78799,7.50469c-5.95804,0 -10.78799,-3.35996 -10.78799,-7.50469c0,-4.14473 4.82995,-7.50469 10.78799,-7.50469c5.95804,0 10.78799,3.35996 10.78799,7.50469z" fill="#000000" stroke="#000000" stroke-width="2"/><path d="M441.68855,345.5347c0,3.88568 -3.35996,7.03565 -7.50469,7.03565c-4.14473,0 -7.50469,-3.14997 -7.50469,-7.03565c0,-3.88568 3.35996,-7.03565 7.50469,-7.03565c4.14473,0 7.50469,3.14997 7.50469,7.03565z" fill="#000000" stroke="#000000" stroke-width="2"/><path d="M408.85553,356.3227c0,2.59045 -0.83999,4.69043 -1.87617,4.69043c-1.03618,0 -1.87617,-2.09998 -1.87617,-4.69043c0,-2.59045 0.83999,-4.69043 1.87617,-4.69043c1.03618,0 1.87617,2.09998 1.87617,4.69043z" fill="#000000" stroke="#000000" stroke-width="2"/><path d="M456.69793,362.8893c0,2.59045 -3.14997,4.69043 -7.03565,4.69043c-3.88568,0 -7.03565,-2.09998 -7.03565,-4.69043c0,-2.59045 3.14997,-4.69043 7.03565,-4.69043c3.88568,0 7.03565,2.09998 7.03565,4.69043z" fill="#000000" stroke="#000000" stroke-width="2"/><path d="M440.75047,388.68667c0,2.8495 -2.30998,5.15947 -5.15947,5.15947c-2.8495,0 -5.15947,-2.30998 -5.15947,-5.15947c0,-2.8495 2.30998,-5.15947 5.15947,-5.15947c2.8495,0 5.15947,2.30998 5.15947,5.15947z" fill="#000000" stroke="#000000" stroke-width="2"/><path d="M406.04127,386.34146c0,3.10854 -2.51997,5.62852 -5.62852,5.62852c-3.10854,0 -5.62852,-2.51997 -5.62852,-5.62852c0,-3.10854 2.51997,-5.62852 5.62852,-5.62852c3.10854,0 5.62852,2.51997 5.62852,5.62852z" fill="#000000" stroke="#000000" stroke-width="2"/><path d="M376.9606,391.03189c0,3.10854 -3.14997,5.62852 -7.03565,5.62852c-3.88568,0 -7.03565,-2.51997 -7.03565,-5.62852c0,-3.10854 3.14997,-5.62852 7.03565,-5.62852c3.88568,0 7.03565,2.51997 7.03565,5.62852z" fill="#000000" stroke="#000000" stroke-width="2"/><path d="M336.62289,393.3771c0,2.33141 -3.14997,4.22139 -7.03565,4.22139c-3.88568,0 -7.03565,-1.88998 -7.03565,-4.22139c0,-2.33141 3.14997,-4.22139 7.03565,-4.22139c3.88568,0 7.03565,1.88998 7.03565,4.22139z" fill="#000000" stroke="#000000" stroke-width="2"/><path d="M297.22326,392.90807c0,4.14473 -4.40995,7.50469 -9.84991,7.50469c-5.43995,0 -9.84991,-3.35996 -9.84991,-7.50469c0,-4.14473 4.40995,-7.50469 9.84991,-7.50469c5.43995,0 9.84991,3.35996 9.84991,7.50469z" fill="#000000" stroke="#000000" stroke-width="2"/><path d="M250.31895,393.84614c0,2.59045 -2.30998,4.69043 -5.15947,4.69043c-2.8495,0 -5.15947,-2.09998 -5.15947,-4.69043c0,-2.59045 2.30998,-4.69043 5.15947,-4.69043c2.8495,0 5.15947,2.09998 5.15947,4.69043z" fill="#000000" stroke="#000000" stroke-width="2"/><path d="M225.9287,379.77486c0,3.10854 -3.14997,5.62852 -7.03565,5.62852c-3.88568,0 -7.03565,-2.51997 -7.03565,-5.62852c0,-3.10854 3.14997,-5.62852 7.03565,-5.62852c3.88568,0 7.03565,2.51997 7.03565,5.62852z" fill="#000000" stroke="#000000" stroke-width="2"/><path d="M196.84803,395.72233c0,2.59045 -2.30998,4.69043 -5.15947,4.69043c-2.8495,0 -5.15947,-2.09998 -5.15947,-4.69043c0,-2.59045 2.30998,-4.69043 5.15947,-4.69043c2.8495,0 5.15947,2.09998 5.15947,4.69043z" fill="#000000" stroke="#000000" stroke-width="2"/><path d="M157.4484,397.5985c0,3.10854 -1.46998,5.62852 -3.2833,5.62852c-1.81332,0 -3.2833,-2.51997 -3.2833,-5.62852c0,-3.10854 1.46998,-5.62852 3.2833,-5.62852c1.81332,0 3.2833,2.51997 3.2833,5.62852z" fill="#000000" stroke="#000000" stroke-width="2"/><path d="M132.12007,399.47467c0,3.10854 -2.09998,5.62852 -4.69043,5.62852c-2.59045,0 -4.69043,-2.51997 -4.69043,-5.62852c0,-3.10854 2.09998,-5.62852 4.69043,-5.62852c2.59045,0 4.69043,2.51997 4.69043,5.62852z" fill="#000000" stroke="#000000" stroke-width="2"/><path d="M99.28705,405.10319c0,2.59045 -1.04999,4.69043 -2.34522,4.69043c-1.29523,0 -2.34522,-2.09998 -2.34522,-4.69043c0,-2.59045 1.04999,-4.69043 2.34522,-4.69043c1.29523,0 2.34522,2.09998 2.34522,4.69043z" fill="#000000" stroke="#000000" stroke-width="2"/><path d="M73.02064,403.22702c0,4.14473 -5.03995,7.50469 -11.25704,7.50469c-6.21709,0 -11.25704,-3.35996 -11.25704,-7.50469c0,-4.14473 5.03995,-7.50469 11.25704,-7.50469c6.21709,0 11.25704,3.35996 11.25704,7.50469z" fill="#000000" stroke="#000000" stroke-width="2"/><path d="M37.37335,400.8818c0,2.33141 -1.67998,4.22139 -3.75235,4.22139c-2.07236,0 -3.75235,-1.88998 -3.75235,-4.22139c0,-2.33141 1.67998,-4.22139 3.75235,-4.22139c2.07236,0 3.75235,1.88998 3.75235,4.22139z" fill="#000000" stroke="#000000" stroke-width="2"/><path d="M27.05441,381.65103c0,1.55427 -2.30998,2.81426 -5.15947,2.81426c-2.8495,0 -5.15947,-1.25999 -5.15947,-2.81426c0,-1.55427 2.30998,-2.81426 5.15947,-2.81426c2.8495,0 5.15947,1.25999 5.15947,2.81426z" fill="#000000" stroke="#000000" stroke-width="2"/><path d="M61.7636,383.05816c0,2.33141 -2.72997,4.22139 -6.09756,4.22139c-3.36759,0 -6.09756,-1.88998 -6.09756,-4.22139c0,-2.33141 2.72997,-4.22139 6.09756,-4.22139c3.36759,0 6.09756,1.88998 6.09756,4.22139z" fill="#000000" stroke="#000000" stroke-width="2"/><path d="M103.0394,383.99625c0,1.29523 -3.35996,2.34522 -7.50469,2.34522c-4.14473,0 -7.50469,-1.04999 -7.50469,-2.34522c0,-1.29523 3.35996,-2.34522 7.50469,-2.34522c4.14473,0 7.50469,1.04999 7.50469,2.34522z" fill="#000000" stroke="#000000" stroke-width="2"/><path d="M134.93433,378.36773c0,0.77714 -1.04999,1.40713 -2.34522,1.40713c-1.29523,0 -2.34522,-0.62999 -2.34522,-1.40713c0,-0.77714 1.04999,-1.40713 2.34522,-1.40713c1.29523,0 2.34522,0.62999 2.34522,1.40713z" fill="#000000" stroke="#000000" stroke-width="2"/><path d="M462.32645,260.6379v-36.58537h16.88555v36.58537z" fill="#000000" stroke="#000000" stroke-width="2"/><path d="M10.99368,195.39374v-6.6196h52.07414v6.6196z" fill="#000000" stroke="#000000" stroke-width="2"/><path d="M9.66976,287.18545v-8.38482h49.86761v8.38482z" fill="#000000" stroke="#000000" stroke-width="2"/><path d="M59.53736,228.05041v-33.98059h7.50221v33.98059z" fill="#000000" stroke="#000000" stroke-width="2"/><path d="M57.77214,285.42022v-15.88703h3.53045v15.88703z" fill="#000000" stroke="#000000" stroke-width="2"/><path d="M10.55237,238.20045v-26.47837h5.73698v26.47838z" fill="#000000" stroke="#000000" stroke-width="2"/><path d="M10.6379,281.2758v-87.24202h51.59475v87.24202z" fill="#000000" stroke="#000000" stroke-width="2"/><path d="M-16.02015,58.16751v-70.55101h515.67695v70.55101z" fill="#9966ff" stroke="none" stroke-width="0"/><path d="M-37.84005,503.29345v-85.09761h557.86209v85.09761z" fill="#9966ff" stroke="none" stroke-width="0"/></g></g></svg>